<svg width="270" height="270" viewBox="0 0 270 270" fill="none" xmlns="http://www.w3.org/2000/svg">
<path fill-rule="evenodd" clip-rule="evenodd" d="M135 270C60.4416 270 0 209.558 0 135C0 60.4416 60.4416 0 135 0C209.558 0 270 60.4416 270 135C270 209.558 209.558 270 135 270ZM135 15.6696C69.0957 15.6696 15.6696 69.0957 15.6696 135C15.6696 200.904 69.0957 254.33 135 254.33C200.904 254.33 254.33 200.904 254.33 135C254.33 69.0957 200.904 15.6696 135 15.6696Z" fill="#33E0A1"/>
<path d="M29.0326 109.089C28.9828 109.041 28.9481 108.971 28.9347 108.893C28.9213 108.815 28.93 108.733 28.9593 108.662C28.9886 108.591 29.0365 108.536 29.0947 108.506C29.1528 108.477 29.2172 108.474 29.2766 108.499C44.3815 116.104 59.6966 121.237 75.0862 125.122C91.0825 129.049 107.321 131.144 123.608 131.383C139.885 131.549 156.139 129.793 172.163 126.137C188.482 122.144 204.543 116.588 220.21 109.514C220.366 109.445 220.529 109.609 220.569 109.887C220.588 109.998 220.583 110.114 220.553 110.221C220.523 110.329 220.47 110.423 220.4 110.494C205.543 121.483 189.606 129.884 173.01 135.475C164.923 138.193 156.704 140.22 148.407 141.545C140.171 142.899 131.871 143.528 123.567 143.427C106.867 143.363 90.2511 140.408 74.171 134.643C72.1371 133.915 70.1033 133.152 68.1033 132.319C66.1033 131.487 64.0762 130.672 62.0695 129.77C58.0627 127.94 54.0967 125.859 50.1509 123.7C42.9578 119.529 35.8121 114.994 29.0326 109.089Z" fill="#33E0A1"/>
<path fill-rule="evenodd" clip-rule="evenodd" d="M107.089 147.331V207.421C107.095 207.757 107.025 208.091 106.885 208.397C106.745 208.704 106.539 208.975 106.28 209.193C106.022 209.41 105.718 209.568 105.391 209.655C105.064 209.742 104.721 209.756 104.388 209.695L102.969 209.468C93.9955 205.359 85.297 201.031 76.8732 196.483C75.4829 195.737 74.3226 194.63 73.5163 193.281C72.7099 191.931 72.2878 190.389 72.295 188.819V138.66C82.7865 142.525 94.5073 145.684 107.089 147.331ZM118.073 148.338L173.953 203.851C174.165 204.066 174.418 204.236 174.697 204.354C174.976 204.471 175.276 204.532 175.578 204.533H218.247C218.706 204.54 219.157 204.41 219.541 204.159C219.925 203.909 220.224 203.549 220.4 203.127C220.575 202.705 220.619 202.24 220.524 201.793C220.43 201.347 220.203 200.938 219.872 200.621L162.094 143.203C144.047 147.662 128.002 148.743 118.073 148.338ZM164.353 123.195L204.696 82.7126C205.026 82.3959 205.254 81.9875 205.348 81.5407C205.442 81.0939 205.399 80.6293 205.223 80.2073C205.048 79.7853 204.749 79.4256 204.365 79.1748C203.981 78.924 203.53 78.7939 203.07 78.8012H160.402C160.101 78.7995 159.802 78.8569 159.523 78.97C159.244 79.0832 158.99 79.2499 158.777 79.4607L111.975 126.445C130.219 128.011 148.216 126.346 164.353 123.195ZM107.091 125.948C107.087 125.878 107.086 125.808 107.089 125.737V62.5419C107.089 61.9387 106.848 61.3603 106.419 60.9339C105.989 60.5074 105.407 60.2678 104.8 60.2678H74.5841C73.977 60.2678 73.3948 60.5074 72.9655 60.9339C72.5362 61.3603 72.295 61.9387 72.295 62.5419V119.468C83.2517 122.166 93.8762 124.054 102.648 125.357C104.129 125.577 105.61 125.774 107.091 125.948Z" fill="#111111"/>
</svg>
